<svg width="154" height="268" viewBox="0 0 154 268" fill="none" xmlns="http://www.w3.org/2000/svg">
<path d="M29.7988 255.16L29.7988 227.393C29.7988 224.533 31.0421 221.99 32.9857 220.211H25.5347C20.1908 220.211 15.8386 224.561 15.8386 229.962L15.8386 257.728C15.8386 263.126 20.1908 267.479 25.5347 267.479H109.99C112.502 267.479 114.775 266.491 116.499 264.913H39.4956C34.1509 264.913 29.7988 260.56 29.7988 255.16Z" fill="white"/>
<path d="M127.973 32.9748C128.255 31.8599 128.722 30.8492 129.313 29.9452C128.763 29.5519 128.257 29.1038 127.62 28.8225C126.298 28.2702 124.975 27.9941 123.653 27.9941C119.246 27.9941 115.169 30.969 114.012 35.5434L109.483 53.9216L109.848 106.524L127.973 32.9748" fill="#FFCC99"/>
<path d="M144.831 99.5818C145.071 99.1832 145.392 98.8863 145.67 98.532C143.967 97.49 142.061 96.9143 140.125 96.9143C138.515 96.9143 136.922 97.3233 135.446 98.0318L130.507 123.217L144.831 99.5818" fill="#FFCC99"/>
<path d="M50.3479 30.8831C50.3479 30.6069 50.2929 30.3308 50.2929 30.112C50.2929 28.0593 50.9986 26.1785 52.0982 24.5738C49.8073 22.9639 46.8726 22.2892 43.9354 23.0368C39.4728 24.1388 36.3325 28.1062 36.3325 32.6779C36.3325 32.8993 36.3877 33.1729 36.3877 33.449L39.0542 70.2367L56.2979 112.969L50.3479 30.8831Z" fill="#FFCC99"/>
<path d="M87.7007 10.7178C87.8122 8.40198 88.6687 6.30496 90.003 4.6039C88.385 3.62963 86.5086 3.03829 84.483 3.03829C78.6983 3.03829 74.0154 7.55535 73.74 13.2863L72.4529 41.7172L83.403 105.641L87.7007 10.7178" fill="#FFCC99"/>
<path d="M48.6401 175.168L17.8994 69.6114C17.6236 68.6763 17.5139 67.7932 17.5139 66.858C17.5139 65.0162 18.0547 63.2292 19.0217 61.6923C16.1887 59.5953 12.3331 59.0743 8.89711 60.7753C5.53642 62.4269 3.55298 65.842 3.55298 69.4239C3.55298 70.3617 3.66317 71.2422 3.93878 72.18L34.68 177.734V220.211H100.79V217.643H48.6401L48.6401 175.168Z" fill="white"/>
<path d="M115.004 177.734L149.601 112.781C151.529 109.199 151.254 104.794 148.885 101.489C147.995 100.21 146.876 99.2692 145.67 98.532C145.392 98.8862 145.071 99.1832 144.831 99.5818L130.507 123.217L135.446 98.0318C133.642 98.8993 132.022 100.238 130.87 102.148L116.546 125.783L133.404 39.8389C134.153 35.9549 132.425 32.1751 129.313 29.9452C128.722 30.8491 128.255 31.8599 127.973 32.9748L109.848 106.524L109.483 53.9215L95.8869 109.09L95.2257 13.6718C95.1892 9.80341 93.0933 6.46383 90.003 4.60386C88.6687 6.30492 87.8122 8.40194 87.7007 10.7178L83.403 105.641L72.4529 41.7172L69.4428 108.209L56.2209 31.0263C55.7476 28.291 54.1901 26.0455 52.0983 24.5737C50.9987 26.1784 50.293 28.0592 50.293 30.1119C50.293 30.3307 50.348 30.6069 50.348 30.883L56.298 112.969L39.0543 70.2366L42.3376 115.535L22.2844 65.842C21.5769 64.1018 20.4128 62.7212 19.0217 61.6922C18.0547 63.2292 17.5139 65.0162 17.5139 66.8579C17.5139 67.7931 17.6236 68.6762 17.8995 69.6114L48.6402 175.168V217.643H100.79V194.263L115.004 177.734Z" fill="#FFCC99"/>
<path d="M69.4427 108.21L56.2208 31.0263C55.2291 25.2953 49.5547 21.6041 43.9354 23.0368C39.4728 24.1387 36.3325 28.1061 36.3325 32.6779C36.3325 32.8993 36.3877 33.1728 36.3877 33.449L42.3375 115.535" stroke="#231F20" stroke-width="5.78716" stroke-miterlimit="10"/>
<path d="M95.8869 109.09L95.2258 13.6719C95.1708 7.77677 90.3779 3.03829 84.483 3.03829C78.6984 3.03829 74.0154 7.55535 73.7401 13.2863L69.4429 108.21" stroke="#231F20" stroke-width="5.78716" stroke-miterlimit="10"/>
<path d="M116.546 125.783L133.404 39.839C134.286 35.2672 131.862 30.6955 127.62 28.8225C126.297 28.2702 124.975 27.9941 123.653 27.9941C119.246 27.9941 115.169 30.969 114.012 35.5433L95.8867 109.09" stroke="#231F20" stroke-width="5.78716" stroke-miterlimit="10"/>
<path d="M42.3376 115.535L22.2844 65.842C20.1358 60.5539 14.0206 58.2407 8.89711 60.7753C5.53642 62.4269 3.55298 65.842 3.55298 69.4239C3.55298 70.3617 3.66317 71.2422 3.93878 72.18L34.68 177.734V220.211H100.79V194.263L115.004 177.734L149.601 112.781C151.529 109.199 151.254 104.794 148.885 101.489C146.736 98.4018 143.431 96.9143 140.126 96.9143C136.544 96.9143 132.964 98.6779 130.87 102.148L116.546 125.783L90.488 128.648L75.7784 156.965" stroke="#231F20" stroke-width="5.78716" stroke-miterlimit="10"/>
<rect x="12.5551" y="218.449" width="108.67" height="46.2973" rx="10.2883" fill="white" stroke="#231F20" stroke-width="5.14414"/>
<rect x="25.4155" y="221.021" width="93.2376" height="41.1532" rx="6.43018" fill="#66CC99"/>
</svg>
